# xmcd
#
# Track frame offsets:
#	150
#	14569
#	27710
#	41753
#	54930
#	69716
#	83893
#	97877
#	113238
#	128437
#	140220
#	152669
#	169545
#	181463
#	192969
#	208233
#	222118
#	239002
#	253801
#	270490
#
# Disc length: 3814 seconds
#
# Revision: 1
# Processed by: cddbd v1.5.1PL2 Copyright (c) Steve Scherf et al.
# Submitted via: audiograbber 1.83.01
#
DISCID=280ee414
DTITLE=banda pequeños musical - 20 grandes éxitos
DYEAR=1900
DGENRE=banda
TTITLE0=un loco solitario
TTITLE1=eso no,no,no
TTITLE2=no necesitas a carlo
TTITLE3=la cuca
TTITLE4=y yo que te amo
TTITLE5=mi fracaso
TTITLE6=solo el que carga el morral
TTITLE7=sueños
TTITLE8=¿quien es el culpable?
TTITLE9=tenis magicos
TTITLE10=cobarde
TTITLE11=el retrato de mamá
TTITLE12=panchitos beibi
TTITLE13=brincos dieras
TTITLE14=tengo que regresar
TTITLE15=el negrito
TTITLE16=ninguna de las dos
TTITLE17=mujer infiel
TTITLE18=romantico incurable
TTITLE19=recuerdos
EXTD=
EXTT0=
EXTT1=
EXTT2=
EXTT3=
EXTT4=
EXTT5=
EXTT6=
EXTT7=
EXTT8=
EXTT9=
EXTT10=
EXTT11=
EXTT12=
EXTT13=
EXTT14=
EXTT15=
EXTT16=
EXTT17=
EXTT18=
EXTT19=
PLAYORDER=
